<svg width="75" height="32" viewBox="0 0 75 32" fill="none" xmlns="http://www.w3.org/2000/svg">
<g clip-path="url(#clip0_54_5)">
<path d="M58.5999 19.4C33.4999 17.4 12.7999 23.5 8.09993 25.8C5.49993 27 5.29993 28.5 5.69993 29.3C5.99993 29.9 7.29993 30.3 8.59993 29.6C18.5999 24.2 38.6999 19.9 58.5999 21.1C59.0999 21.1 59.4999 20.7 59.4999 20.2C59.4999 19.8 59.0999 19.4 58.5999 19.4ZM64.7999 11.8C63.6999 13 62.1999 13.9 61.6999 13.5C61.1999 13.1 61.6999 11.6 61.6999 11.6C64.1999 10 68.9999 5.9 68.9999 2.7C68.9999 -0.200002 66.3999 -1.1 63.6999 1.6C61.4999 4 59.8999 7 58.9999 10.2C57.5999 11.6 55.2999 13.4 53.2999 13.4C52.1999 13.4 51.9999 12.6 52.0999 11.6C53.7999 11.6 58.5999 10.2 58.5999 6.2C58.5999 5.5 58.2999 4.9 57.7999 4.4C57.2999 3.9 56.6999 3.7 55.9999 3.8C53.7999 3.8 51.0999 6 49.6999 9.2C49.3999 9.1 48.9999 9 48.6999 8.8C49.0999 8 49.2999 7.2 49.5999 6.4C49.8999 4.7 49.1999 3.7 47.8999 3.9C46.9999 3.9 45.9999 4.7 45.6999 6.4C45.5999 7.3 45.7999 8.2 46.0999 8.9C45.4999 10.8 43.0999 13.1 42.2999 13C41.4999 12.9 42.3999 9.6 43.1999 7.1C43.6999 6.6 43.9999 6.1 44.2999 5.4C44.4999 4.9 44.3999 4.3 43.8999 4.1C42.6999 3.6 41.2999 4.2 40.7999 5.4C40.4999 6 40.1999 6.6 39.8999 7.3C39.1999 8.1 38.1999 9.2 37.8999 9.1C37.4999 8.8 38.9999 6.8 38.7999 5.6C38.6999 4.7 37.7999 4 36.8999 4.1C35.4999 4.3 33.7999 6.9 33.7999 6.9C33.9999 6.4 34.0999 5.9 34.1999 5.4C34.0999 4.4 32.2999 4 31.3999 5.8C30.7999 7.5 30.2999 9.3 30.0999 11.1C29.6999 11.9 28.1999 14.3 26.9999 14.4C25.9999 14.5 27.1999 10.1 27.3999 9.9C27.8999 9.1 28.5999 7.4 28.4999 6.6C28.4999 6.2 28.3999 5.9 28.0999 5.7C27.7999 5.5 27.3999 5.4 27.0999 5.5C26.4999 5.7 25.9999 6.1 25.6999 6.6C25.2999 6.1 24.5999 5.8 23.8999 5.9C19.8999 6.3 17.3999 13.3 17.6999 16.6C17.8999 18.4 18.7999 19.5 20.2999 19.2C21.9999 19 23.3999 16.4 23.3999 16.4C23.3999 16.4 23.7999 18.5 25.6999 18.3C27.0999 17.9 28.2999 17 29.1999 15.8C29.1999 15.9 29.0999 16 29.0999 16.2C28.7999 18 31.6999 17.8 31.8999 16.4C32.7999 9.7 34.9999 7 35.5999 7C36.0999 7 34.1999 10.1 35.2999 11.4C36.1999 12.4 37.6999 11.6 38.9999 10.5C38.7999 11.3 38.6999 12.2 38.5999 13C38.4999 14.9 39.1999 16.4 40.9999 16.3C43.3999 16.2 45.8999 13.2 47.5999 10.4C47.9999 10.7 48.4999 10.9 48.9999 11C48.7999 11.7 48.7999 12.4 48.7999 13C48.8999 15.2 50.3999 16 52.1999 15.9C54.1999 15.8 56.5999 14.3 58.1999 12.8C58.1999 12.9 58.1999 13 58.0999 13C57.9999 14.1 58.1999 16 59.6999 16.1C61.3999 16.2 64.3999 14.5 65.8999 12.6C66.9999 12 65.6999 10.8 64.7999 11.8ZM66.3999 2.8C66.5999 2.8 66.6999 3 66.6999 3.2C66.6999 5.1 62.0999 9 62.0999 9C62.0999 9 65.0999 2.8 66.3999 2.8ZM55.1999 6.7C55.3999 6.7 55.4999 6.7 55.5999 6.9C55.6999 7.1 55.6999 7.2 55.6999 7.3C55.6999 8.4 54.2999 9.2 52.6999 9.2C53.5999 7.9 54.4999 6.7 55.1999 6.7ZM24.1999 9.6C24.0999 10.7 22.0999 15.8 21.0999 15.8C19.7999 15.9 21.7999 8.7 23.8999 8.7C24.2999 8.7 24.2999 9 24.1999 9.6ZM7.29993 11C8.59993 11 6.19993 17.7 6.49993 20.6C6.79993 23.5 9.99993 22.7 9.79993 21C9.39993 18.1 11.3999 9 13.2999 9C14.6999 9 11.6999 15.2 12.2999 19.1C12.6999 21.6 16.0999 20.9 15.6999 19.2C14.5999 14.1 18.1999 9.2 17.6999 5.6C17.4999 4.1 16.5999 3.3 15.6999 3.3C12.4999 3.3 9.89993 9.9 9.89993 9.9C9.89993 9.9 10.2999 6.2 7.59993 6C3.79993 5.8 -0.10007 15.4 -7.00392e-05 24.1C0.09993 26.9 3.49993 26.4 3.29993 24.2C3.09993 20.3 5.29993 11 7.29993 11Z" fill="black"/>
</g>
<defs>
<clipPath id="clip0_54_5">
<rect width="75" height="32" fill="white"/>
</clipPath>
</defs>
</svg>
