<svg width="75" height="32" fill="none" xmlns="http://www.w3.org/2000/svg"><g clip-path="url(#clip0_54_5)"><path d="M58.6 19.4c-25.1-2-45.8 4.1-50.5 6.4-2.6 1.2-2.8 2.7-2.4 3.5.3.6 1.6 1 2.9.3 10-5.4 30.1-9.7 50-8.5.5 0 .9-.4.9-.9 0-.4-.4-.8-.9-.8zm6.2-7.6c-1.1 1.2-2.6 2.1-3.1 1.7-.5-.4 0-1.9 0-1.9C64.2 10 69 5.9 69 2.7c0-2.9-2.6-3.8-5.3-1.1C61.5 4 59.9 7 59 10.2c-1.4 1.4-3.7 3.2-5.7 3.2-1.1 0-1.3-.8-1.2-1.8 1.7 0 6.5-1.4 6.5-5.4 0-.7-.3-1.3-.8-1.8s-1.1-.7-1.8-.6c-2.2 0-4.9 2.2-6.3 5.4-.3-.1-.7-.2-1-.4.4-.8.6-1.6.9-2.4.3-1.7-.4-2.7-1.7-2.5-.9 0-1.9.8-2.2 2.5-.1.9.1 1.8.4 2.5-.6 1.9-3 4.2-3.8 4.1-.8-.1.1-3.4.9-5.9.5-.5.8-1 1.1-1.7.2-.5.1-1.1-.4-1.3-1.2-.5-2.6.1-3.1 1.3-.3.6-.6 1.2-.9 1.9-.7.8-1.7 1.9-2 1.8-.4-.3 1.1-2.3.9-3.5-.1-.9-1-1.6-1.9-1.5-1.4.2-3.1 2.8-3.1 2.8.2-.5.3-1 .4-1.5-.1-1-1.9-1.4-2.8.4-.6 1.7-1.1 3.5-1.3 5.3-.4.8-1.9 3.2-3.1 3.3-1 .1.2-4.3.4-4.5.5-.8 1.2-2.5 1.1-3.3 0-.4-.1-.7-.4-.9-.3-.2-.7-.3-1-.2-.6.2-1.1.6-1.4 1.1-.4-.5-1.1-.8-1.8-.7-4 .4-6.5 7.4-6.2 10.7.2 1.8 1.1 2.9 2.6 2.6 1.7-.2 3.1-2.8 3.1-2.8s.4 2.1 2.3 1.9c1.4-.4 2.6-1.3 3.5-2.5 0 .1-.1.2-.1.4-.3 1.8 2.6 1.6 2.8.2C32.8 9.7 35 7 35.6 7c.5 0-1.4 3.1-.3 4.4.9 1 2.4.2 3.7-.9-.2.8-.3 1.7-.4 2.5-.1 1.9.6 3.4 2.4 3.3 2.4-.1 4.9-3.1 6.6-5.9.4.3.9.5 1.4.6-.2.7-.2 1.4-.2 2 .1 2.2 1.6 3 3.4 2.9 2-.1 4.4-1.6 6-3.1 0 .1 0 .2-.1.2-.1 1.1.1 3 1.6 3.1 1.7.1 4.7-1.6 6.2-3.5 1.1-.6-.2-1.8-1.1-.8zm1.6-9c.2 0 .3.2.3.4 0 1.9-4.6 5.8-4.6 5.8s3-6.2 4.3-6.2zM55.2 6.7c.2 0 .3 0 .4.2.1.2.1.3.1.4 0 1.1-1.4 1.9-3 1.9.9-1.3 1.8-2.5 2.5-2.5zm-31 2.9c-.1 1.1-2.1 6.2-3.1 6.2-1.3.1.7-7.1 2.8-7.1.4 0 .4.3.3.9zM7.3 11c1.3 0-1.1 6.7-.8 9.6.3 2.9 3.5 2.1 3.3.4-.4-2.9 1.6-12 3.5-12 1.4 0-1.6 6.2-1 10.1.4 2.5 3.8 1.8 3.4.1-1.1-5.1 2.5-10 2-13.6-.2-1.5-1.1-2.3-2-2.3-3.2 0-5.8 6.6-5.8 6.6s.4-3.7-2.3-3.9C3.8 5.8-.1 15.4 0 24.1c.1 2.8 3.5 2.3 3.3.1-.2-3.9 2-13.2 4-13.2z" fill="#000"/></g><defs><clipPath id="clip0_54_5"><path fill="#fff" d="M0 0h75v32H0z"/></clipPath></defs></svg>