<svg width="48" height="48" fill="none" xmlns="http://www.w3.org/2000/svg"><path d="M47.946 41.312l-4.808 3.857H.054L7.482 7.416l5.462-4.45L48 3.16l-.054 38.152z" fill="#1A1006"/><path d="M46.517 39.64V4.584L48 3.101l-.054 38.211-1.43-1.672z" fill="url(#paint0_linear_35_81)"/><path d="M46.517 39.64H6.877l-1.753 1.618 42.822.054-1.43-1.672z" fill="url(#paint1_linear_35_81)"/><path d="M6.876 39.64l-1.752 1.618 7.82-38.292 1.079 1.618L6.876 39.64z" fill="url(#paint2_linear_35_81)"/><path d="M14.023 4.584l-1.08-1.618L48 3.101l-1.483 1.483H14.022z" fill="url(#paint3_linear_35_81)"/><path fill-rule="evenodd" clip-rule="evenodd" d="M10.112 37.214L16.18 7.28h27.91v9.168h-4.584v-3.236h-5.663V31.28h5.663v-3.236l4.449-.135v9.169l-19.146.135v-9.17h-4.315l-1.213 9.17h-9.169zm12-23.596l-1.296 11.73h3.993v-11.73h-2.697z" fill="#FEF85A"/><path d="M22.112 13.618l-2.966-2.832-3.64 23.057-5.394 3.37h9.148c1.29-9.178 1.88-14.351 2.852-23.595z" fill="url(#paint4_linear_35_81)"/><path d="M30.337 33.438l-.135-22.652H19.146l2.966 2.832h2.697v11.73h-3.993l-.322 2.697h4.315v9.169l5.528-3.776z" fill="url(#paint5_linear_35_81)"/><path d="M19.146 10.787l-3.64 23.056-5.394 3.37L16.18 7.282l2.966 3.506z" fill="url(#paint6_linear_35_81)"/><path d="M19.146 10.787L16.18 7.28h27.91v9.168h-2.562v-5.663H19.146z" fill="url(#paint7_linear_35_81)"/><path d="M33.843 13.213c-1.034-.764-3.533-2.319-3.64-2.426v11.325l.134 11.326-5.528 3.776 19.146-.135-2.562-2.967h-7.55V13.213z" fill="url(#paint8_linear_35_81)"/><path d="M33.843 34.112v-2.831h5.663v-3.236l4.449-.135v9.169l-2.562-2.967h-7.55z" fill="url(#paint9_linear_35_81)"/><defs><linearGradient id="paint0_linear_35_81" x1="24" y1="0" x2="24" y2="48.17" gradientUnits="userSpaceOnUse"><stop stop-color="#FAF959"/><stop offset="1" stop-color="#FF9210"/></linearGradient><linearGradient id="paint1_linear_35_81" x1="48" y1="24.773" x2="-.06" y2="24.773" gradientUnits="userSpaceOnUse"><stop offset=".007" stop-color="#FAF959"/><stop offset="1" stop-color="#FF9210"/></linearGradient><linearGradient id="paint2_linear_35_81" x1="2.137" y1="48.171" x2="4.495" y2="-2.216" gradientUnits="userSpaceOnUse"><stop stop-color="#FAF959"/><stop offset="1" stop-color="#FF9210"/></linearGradient><linearGradient id="paint3_linear_35_81" x1="8.604" y1="1.013" x2="48" y2="1.013" gradientUnits="userSpaceOnUse"><stop stop-color="#FAF959"/><stop offset="1" stop-color="#FF9210"/></linearGradient><linearGradient id="paint4_linear_35_81" x1="35.147" y1=".49" x2="30.697" y2="49.666" gradientUnits="userSpaceOnUse"><stop stop-color="#FF920E"/><stop offset="1" stop-color="#FEF558"/></linearGradient><linearGradient id="paint5_linear_35_81" x1="23.707" y1=".245" x2="23.707" y2="48" gradientUnits="userSpaceOnUse"><stop stop-color="#FEF75A"/><stop offset="1" stop-color="#FF920F"/></linearGradient><linearGradient id="paint6_linear_35_81" x1="40.933" y1=".432" x2="37.864" y2="49.616" gradientUnits="userSpaceOnUse"><stop stop-color="#FEF85A"/><stop offset="1" stop-color="#FE930C"/></linearGradient><linearGradient id="paint7_linear_35_81" x1=".233" y1="24.706" x2="47.767" y2="24.706" gradientUnits="userSpaceOnUse"><stop stop-color="#FD9210"/><stop offset="1" stop-color="#FDF857"/></linearGradient><linearGradient id="paint8_linear_35_81" x1="24.17" y1=".245" x2="24.17" y2="47.755" gradientUnits="userSpaceOnUse"><stop stop-color="#FD9210"/><stop offset="1" stop-color="#FEF657"/></linearGradient><linearGradient id="paint9_linear_35_81" x1="38.831" y1="28.584" x2="38.831" y2="36.809" gradientUnits="userSpaceOnUse"><stop stop-color="#F8A323"/><stop offset="1" stop-color="#FF930D"/></linearGradient></defs></svg>